<?xml version="1.0" encoding="UTF-8" standalone="no"?>
<!DOCTYPE svg PUBLIC "-//W3C//DTD SVG 1.1//EN"
 "http://www.w3.org/Graphics/SVG/1.1/DTD/svg11.dtd">
<!-- Generated by graphviz version 2.38.0 (20140413.2041)
 -->
<!-- Title: G Pages: 1 -->
<svg width="165pt" height="312pt"
 viewBox="0.00 0.00 165.00 312.00" xmlns="http://www.w3.org/2000/svg" xmlns:xlink="http://www.w3.org/1999/xlink">
<g id="graph0" class="graph" transform="scale(1 1) rotate(0) translate(4 308)">
<title>G</title>
<polygon fill="white" stroke="none" points="-4,4 -4,-308 161,-308 161,4 -4,4"/>
<g id="clust1" class="cluster"><title>cluster_Global</title>
<path fill="none" stroke="gray" d="M20,-8C20,-8 137,-8 137,-8 143,-8 149,-14 149,-20 149,-20 149,-284 149,-284 149,-290 143,-296 137,-296 137,-296 20,-296 20,-296 14,-296 8,-290 8,-284 8,-284 8,-20 8,-20 8,-14 14,-8 20,-8"/>
<text text-anchor="middle" x="78.5" y="-283.2" font-family="Times,serif" font-size="11.00" fill="gray">Global</text>
</g>
<!-- \\PrintInformation -->
<g id="node1" class="node"><title>\\PrintInformation</title>
<polygon fill="none" stroke="black" points="141,-268 16,-268 16,-232 141,-232 141,-268"/>
<text text-anchor="middle" x="78.5" y="-247.2" font-family="Courier,monospace" font-size="11.00">PrintInformation</text>
</g>
<!-- \\Animals -->
<g id="node2" class="node"><title>\\Animals</title>
<polygon fill="none" stroke="black" points="110.5,-214 46.5,-214 46.5,-178 110.5,-178 110.5,-214"/>
<text text-anchor="middle" x="78.5" y="-193.2" font-family="Courier,monospace" font-size="11.00">Animals</text>
</g>
<!-- \\homeAnimals -->
<g id="node3" class="node"><title>\\homeAnimals</title>
<polygon fill="none" stroke="black" points="124,-160 33,-160 33,-124 124,-124 124,-160"/>
<text text-anchor="middle" x="78.5" y="-139.2" font-family="Courier,monospace" font-size="11.00">homeAnimals</text>
</g>
<!-- \\Registration -->
<g id="node4" class="node"><title>\\Registration</title>
<polygon fill="none" stroke="black" points="127.5,-106 29.5,-106 29.5,-70 127.5,-70 127.5,-106"/>
<text text-anchor="middle" x="78.5" y="-85.2" font-family="Courier,monospace" font-size="11.00">Registration</text>
</g>
<!-- \\Enter -->
<g id="node5" class="node"><title>\\Enter</title>
<polygon fill="none" stroke="black" points="105.5,-52 51.5,-52 51.5,-16 105.5,-16 105.5,-52"/>
<text text-anchor="middle" x="78.5" y="-31.2" font-family="Courier,monospace" font-size="11.00">Enter</text>
</g>
</g>
</svg>
